<svg width="160" height="41" fill="none" xmlns="http://www.w3.org/2000/svg"><path d="M64.176 11.302v28.7h-6.683L44.824 24.71v15.293H36.87v-28.7h6.683l12.669 15.293V11.302h7.954zM91.96 25.037c1.64.574 2.925 1.476 3.854 2.706.93 1.203 1.394 2.665 1.394 4.387 0 2.515-1.011 4.456-3.034 5.822-2.022 1.367-4.947 2.05-8.774 2.05H69.902v-28.7H84.58c3.663 0 6.45.684 8.364 2.05 1.914 1.34 2.87 3.157 2.87 5.453 0 1.367-.341 2.597-1.025 3.69-.656 1.066-1.599 1.914-2.829 2.542zm-14.022-7.872V22.7h5.576c2.734 0 4.1-.929 4.1-2.788 0-1.83-1.366-2.747-4.1-2.747h-5.576zm6.806 16.974c2.843 0 4.264-.97 4.264-2.91 0-1.941-1.421-2.912-4.264-2.912h-6.806v5.822h6.806z" fill="#fff"/><path d="M10.183 35.205l.909-1.212a3 3 0 012.4-1.2h10.462c.484 0 .972-.102 1.369-.378 1.631-1.138.885-2.24-.045-2.886-.368-.255-.82-.341-1.268-.341h-3.367c-2.484 0-3.892-2.846-2.384-4.82l.984-1.29a3 3 0 012.385-1.18h2.649c.576 0 1.184-.13 1.55-.576.621-.758.442-1.593.051-2.25-.37-.622-1.117-.858-1.84-.858h-9.033c-1.986 0-3.433-1.956-2.212-3.523 2.267-2.91 5.69-3.708 7.508-3.688h5.722c6.819.548 7.106 5.252 7.524 7.211a12.428 12.428 0 01-.618 5.35c-.475 1.344-.384 2.95.113 4.286.67 1.8.653 3.686.505 4.63-.815 5.456-5.565 7.29-7.838 7.525H12.583c-2.472 0-3.883-2.823-2.4-4.8z" fill="url(#paint0_linear)"/><path d="M5.095 11.002h3.998L4.938 25.425h4.233L2.665 39.691l2.352-10.504H0l5.095-18.185z" fill="url(#paint1_linear)"/><path d="M9.406 36.32l2.587-3.526H24.69c2.885-1.505 1.202-3.031 0-3.606H14.58l5.565-7.29h5.016c1.944-1.254.81-2.978 0-3.684H11.052c-2.586-4.233 2.456-3.554 4.86-3.527h8.936c5.722.783 4.755 2.978 5.173 4.938-.392 6.976-4.625 5.33-5.487 5.957 2.665.235 5.461 3.135 5.252 4.468.784 3.449-2.587 5.8-4.86 6.035l-15.52.235z" fill="url(#paint2_linear)"/><path d="M16.93 13.356c-2.445 2.006-.81 4.076.314 4.86h-6.27l-.157-7.212h12.411c.12-.002.243-.002.365 0h-.365c-3.028.06-5.443 1.573-6.297 2.352z" fill="#059180"/><path d="M9.092 11.002h11.053c-6.647.126-9.72 7.264-10.426 10.817h6.35L2.665 39.77l6.427-14.266H4.86l4.232-14.5z" fill="url(#paint3_linear)"/><path d="M105.562 40.146a8.871 8.871 0 01-2.754-.432c-.876-.3-1.566-.684-2.07-1.152l.666-1.404c.48.432 1.092.786 1.836 1.062.756.264 1.53.396 2.322.396 1.044 0 1.824-.174 2.34-.522.516-.36.774-.834.774-1.422 0-.432-.144-.78-.432-1.044a2.677 2.677 0 00-1.044-.63c-.408-.144-.99-.306-1.746-.486-.948-.228-1.716-.456-2.304-.684a3.924 3.924 0 01-1.494-1.044c-.408-.48-.612-1.122-.612-1.926 0-.672.174-1.278.522-1.818.36-.54.9-.972 1.62-1.296.72-.324 1.614-.486 2.682-.486.744 0 1.476.096 2.196.288.72.192 1.338.468 1.854.828l-.594 1.44a6.298 6.298 0 00-1.692-.756 6.12 6.12 0 00-1.764-.27c-1.02 0-1.788.186-2.304.558-.504.372-.756.852-.756 1.44 0 .432.144.786.432 1.062.288.264.642.474 1.062.63.432.144 1.014.3 1.746.468.948.228 1.71.456 2.286.684a3.774 3.774 0 011.476 1.044c.42.468.63 1.098.63 1.89 0 .66-.18 1.266-.54 1.818-.36.54-.906.972-1.638 1.296-.732.312-1.632.468-2.7.468zm12.62-.702a2.686 2.686 0 01-.936.504 4.11 4.11 0 01-1.152.162c-.96 0-1.704-.258-2.232-.774-.528-.516-.792-1.254-.792-2.214v-5.238h-1.62v-1.422h1.62v-2.088h1.728v2.088h2.736v1.422h-2.736v5.166c0 .516.126.912.378 1.188.264.276.636.414 1.116.414.528 0 .978-.15 1.35-.45l.54 1.242zm3.745-7.38c.3-.552.744-.972 1.332-1.26.588-.288 1.302-.432 2.142-.432v1.674a3.374 3.374 0 00-.396-.018c-.936 0-1.674.282-2.214.846-.528.552-.792 1.344-.792 2.376v4.752h-1.728v-9.54h1.656v1.602zm5.604-1.602h1.728v9.54h-1.728v-9.54zm.864-1.836c-.336 0-.618-.108-.846-.324a1.077 1.077 0 01-.324-.792c0-.312.108-.576.324-.792a1.15 1.15 0 01.846-.342c.336 0 .612.108.828.324a.994.994 0 01.342.774c0 .324-.114.6-.342.828-.216.216-.492.324-.828.324zm7.871 6.93l-1.98 1.836v2.61h-1.728V26.646h1.728v8.568l5.202-4.752h2.088l-4.014 3.942 4.41 5.598h-2.124l-3.582-4.446zm15.601-.27c0 .132-.012.306-.036.522h-7.74c.108.84.474 1.518 1.098 2.034.636.504 1.422.756 2.358.756 1.14 0 2.058-.384 2.754-1.152l.954 1.116a4.166 4.166 0 01-1.62 1.152c-.636.264-1.35.396-2.142.396-1.008 0-1.902-.204-2.682-.612a4.55 4.55 0 01-1.818-1.746c-.42-.744-.63-1.584-.63-2.52 0-.924.204-1.758.612-2.502.42-.744.99-1.32 1.71-1.728.732-.42 1.554-.63 2.466-.63.912 0 1.722.21 2.43.63.72.408 1.278.984 1.674 1.728.408.744.612 1.596.612 2.556zm-4.716-3.456c-.828 0-1.524.252-2.088.756-.552.504-.876 1.164-.972 1.98h6.12c-.096-.804-.426-1.458-.99-1.962-.552-.516-1.242-.774-2.07-.774z" fill="#fff"/><defs><linearGradient id="paint0_linear" x1="16.068" y1="12.021" x2="30.882" y2="39.221" gradientUnits="userSpaceOnUse"><stop stop-color="#1BD89F"/><stop offset="1" stop-color="#59FBC1"/></linearGradient><linearGradient id="paint1_linear" x1="4.585" y1="11.002" x2="4.585" y2="39.691" gradientUnits="userSpaceOnUse"><stop stop-color="#FB46DE"/><stop offset="1" stop-color="#DD2A95"/></linearGradient><linearGradient id="paint2_linear" x1="19.714" y1="14.631" x2="19.714" y2="36.32" gradientUnits="userSpaceOnUse"><stop stop-color="#14C972"/><stop offset="1" stop-color="#4AE5EF"/></linearGradient><linearGradient id="paint3_linear" x1="11.405" y1="11.002" x2="4.154" y2="38.672" gradientUnits="userSpaceOnUse"><stop stop-color="#E446FE"/><stop offset="1" stop-color="#F033F4"/></linearGradient></defs></svg>